<svg xmlns="http://www.w3.org/2000/svg" width="96" height="96" viewBox="0 0 96 96">
    <g fill="none" fill-rule="evenodd">
        <!-- <path fill="#FAFAFA" d="M-112-48h320v880.95h-320z"/> -->
        <path fill="#FFC200" d="M47.999 3.998L22 52.402 47.999 92l26.003-39.598L47.999 3.998zm1.97 35.027V16.047l16.979 31.599-16.978-8.621zm-3.945-22.978v22.978l-16.978 8.62 16.978-31.598zm3.946 27.46l17.8 9.035-17.8 12.046v-21.08zm-21.742 9.035l17.796-9.034v21.08L28.228 52.542zM49.97 69.408l14.604-9.885-14.604 22.24V69.408zm-18.55-9.885l14.604 9.885v12.355L31.42 59.523z"/>
        <path d="M0 0h96v96H0z"/>
    </g>
</svg>
