<svg xmlns="http://www.w3.org/2000/svg" width="96" height="96" viewBox="0 0 96 96">
    <g fill="none" fill-rule="evenodd">
        <!-- <path fill="#FAFBFB" d="M-113-588h320v880.95h-320z"/> -->
        <g fill="#FFC200">
            <path d="M8.4 48c0-13.184 6.503-24.853 16.443-32.055A36.986 36.986 0 0 1 45.6 9.6c20.513 0 37.2 16.687 37.2 37.2v2.4c0 17.866-14.534 32.4-32.4 32.4-15.218 0-27.6-12.382-27.6-27.6v-7.2c0-4.899 1.568-9.43 4.208-13.151A20.243 20.243 0 0 0 25.2 42v12c0 13.896 11.304 25.2 25.2 25.2 16.542 0 30-13.458 30-30v-2.4c0-18.154-13.98-33.086-31.736-34.645A30.424 30.424 0 0 0 45.6 12c-19.188 0-34.8 15.612-34.8 34.8v2.4c0 14.871 8.251 27.841 20.406 34.61C17.755 77.474 8.4 63.826 8.4 48m42 2.4a1.2 1.2 0 0 0 1.2-1.2v-2.4c0-3.309-2.691-6-6-6s-6 2.691-6 6V54c0 5.955 4.845 10.8 10.8 10.8 4.995 0 9.438-2.369 12.295-6.033-1.918 4.926-6.7 8.433-12.295 8.433-7.277 0-13.2-5.923-13.2-13.2v-7.2c0-4.631 3.769-8.4 8.4-8.4s8.4 3.769 8.4 8.4v2.4c0 1.985-1.615 3.6-3.6 3.6a3.604 3.604 0 0 1-3.6-3.6v-2.4a1.2 1.2 0 1 0-2.4 0v2.4c0 3.309 2.691 6 6 6s6-2.691 6-6V42c0-5.955-4.845-10.8-10.8-10.8-4.995 0-9.438 2.369-12.295 6.033 1.918-4.926 6.7-8.433 12.295-8.433 7.277 0 13.2 5.923 13.2 13.2v7.2c0 4.631-3.769 8.4-8.4 8.4S42 53.831 42 49.2v-2.4c0-1.985 1.615-3.6 3.6-3.6s3.6 1.615 3.6 3.6v2.4a1.2 1.2 0 0 0 1.2 1.2M23.569 67.342A32.22 32.22 0 0 1 18 49.2v-2.4c0-15.218 12.382-27.6 27.6-27.6 12.572 0 22.8 10.228 22.8 22.8v12c0 9.926-8.074 18-18 18s-18-8.074-18-18V46.8c0-7.277 5.923-13.2 13.2-13.2 3.804 0 6.989 2.559 8.019 6.034C51.64 37.421 48.795 36 45.6 36c-5.955 0-10.8 4.845-10.8 10.8V54c0 8.602 6.998 15.6 15.6 15.6S66 62.602 66 54V42c0-11.248-9.152-20.4-20.4-20.4-.703 0-1.398.036-2.083.106C30.594 22.771 20.4 33.607 20.4 46.8V54c0 4.796 1.16 9.317 3.169 13.342M50.4 76.8c-12.572 0-22.8-10.228-22.8-22.8V42c0-9.926 8.074-18 18-18s18 8.074 18 18V49.2c0 7.277-5.923 13.2-13.2 13.2-3.804 0-6.989-2.559-8.019-6.034C44.36 58.579 47.205 60 50.4 60c5.955 0 10.8-4.845 10.8-10.8V42c0-8.602-6.998-15.6-15.6-15.6S30 33.398 30 42v12c0 11.248 9.152 20.4 20.4 20.4.703 0 1.398-.036 2.083-.106C65.406 73.229 75.6 62.393 75.6 49.2V42c0-4.796-1.16-9.317-3.169-13.341A32.214 32.214 0 0 1 78 46.8v2.4c0 15.218-12.382 27.6-27.6 27.6M87.6 48c0 13.184-6.503 24.853-16.442 32.055A36.99 36.99 0 0 1 50.4 86.4c-20.512 0-37.2-16.688-37.2-37.2v-2.4c0-17.866 14.534-32.4 32.4-32.4 15.218 0 27.6 12.382 27.6 27.6v7.2c0 4.899-1.568 9.43-4.208 13.151A20.243 20.243 0 0 0 70.8 54V42c0-13.896-11.304-25.2-25.2-25.2-16.542 0-30 13.458-30 30v2.4c0 18.154 13.98 33.086 31.736 34.645 1.008.102 2.03.155 3.064.155 19.188 0 34.8-15.612 34.8-34.8v-2.4c0-14.871-8.251-27.841-20.406-34.61C78.245 18.526 87.6 32.174 87.6 48m2.4 0C90 24.841 71.159 6 48 6c-9.151 0-17.601 2.975-24.508 7.962C12.948 21.085 6 33.146 6 46.8c0 .086.032.161.049.241-.008.322-.049.635-.049.959 0 23.159 18.841 42 42 42 9.151 0 17.601-2.975 24.508-7.962C83.052 74.915 90 62.854 90 49.2c0-.086-.032-.161-.049-.241.008-.322.049-.635.049-.959"/>
            <path d="M48 93.6C22.856 93.6 2.4 73.144 2.4 48 2.4 22.856 22.856 2.4 48 2.4c25.144 0 45.6 20.456 45.6 45.6 0 25.144-20.456 45.6-45.6 45.6M48 0C21.532 0 0 21.532 0 48s21.532 48 48 48 48-21.532 48-48S74.468 0 48 0"/>
        </g>
    </g>
</svg>
